<?xml version="1.0" standalone="no"?>
<!DOCTYPE svg PUBLIC "-//W3C//DTD SVG 20010904//EN"
 "http://www.w3.org/TR/2001/REC-SVG-20010904/DTD/svg10.dtd">
<svg version="1.0" xmlns="http://www.w3.org/2000/svg"
 width="1200.000000pt" height="1224.000000pt" viewBox="0 0 1200.000000 1224.000000"
 preserveAspectRatio="xMidYMid meet">

<g transform="translate(0.000000,1224.000000) scale(0.100000,-0.100000)"
fill="#000000" stroke="none">
<path d="M4563 11102 l-1443 -827 0 -1658 0 -1657 34 17 c18 10 668 380 1445
823 l1411 805 0 1662 c0 915 -1 1663 -2 1662 -2 0 -652 -373 -1445 -827z"/>
<path d="M6022 10260 l3 -1663 615 -359 c1135 -664 2209 -1288 2214 -1288 3 0
6 742 6 1649 l0 1649 -1397 823 c-769 452 -1408 829 -1421 837 l-22 14 2
-1662z"/>
<path d="M1683 6105 c-782 -451 -1425 -823 -1427 -826 -3 -3 -13 -744 -21
-1648 -8 -903 -16 -1647 -18 -1652 -2 -10 2828 -1666 2864 -1676 10 -3 606
335 1440 817 783 452 1427 825 1431 828 4 4 -636 383 -1422 842 -786 459
-1431 840 -1433 845 -2 6 0 663 5 1460 5 798 7 1536 6 1640 l-3 191 -1422
-821z"/>
<path d="M8876 5823 c-3 -610 -7 -1362 -8 -1673 l-3 -565 -760 -430 c-1294
-731 -2059 -1167 -2073 -1180 -10 -9 288 -185 1415 -835 785 -454 1435 -824
1443 -824 11 0 2841 1613 2856 1628 1 0 7 579 13 1286 6 707 14 1452 17 1656
l6 370 -1418 819 c-781 450 -1433 827 -1450 837 l-32 19 -6 -1108z"/>
<path d="M4560 5885 l0 -1005 278 0 c556 0 719 39 893 210 120 118 169 235
169 405 0 158 -45 270 -145 363 -37 35 -86 69 -127 87 -37 17 -68 32 -68 35 0
3 16 14 35 24 140 76 217 289 170 471 -22 84 -61 150 -134 228 -51 53 -82 76
-145 107 -140 66 -248 79 -653 80 l-273 0 0 -1005z m658 635 c108 -20 172 -93
172 -194 0 -104 -55 -170 -165 -197 -27 -7 -102 -13 -165 -14 l-115 0 -3 195
c-1 107 0 200 2 207 6 16 197 18 274 3z m119 -785 c115 -35 183 -120 183 -229
0 -108 -55 -179 -178 -230 -38 -16 -79 -20 -224 -24 l-178 -4 0 249 c0 137 3
253 8 258 13 13 332 -2 389 -20z"/>
<path d="M6220 5885 l0 -1005 190 0 190 0 2 440 3 440 323 -440 323 -440 225
0 c123 0 224 3 224 8 0 4 -176 234 -389 511 l-389 504 76 96 c42 53 217 272
389 487 172 215 313 394 313 398 0 3 -102 5 -227 4 l-227 -3 -311 -417 c-171
-230 -316 -423 -323 -430 -9 -9 -12 79 -12 420 l0 432 -190 0 -190 0 0 -1005z"/>
<path d="M6665 4447 c-111 -37 -196 -106 -245 -199 -28 -53 -35 -76 -38 -144
-7 -135 43 -239 158 -325 116 -87 298 -105 432 -42 71 34 150 99 174 145 l15
28 -84 0 c-70 0 -87 -3 -101 -19 -55 -61 -208 -84 -297 -44 -228 102 -204 409
38 479 86 25 191 1 265 -61 26 -22 39 -25 104 -25 92 0 94 8 20 88 -41 43 -74
68 -128 92 -65 31 -83 35 -173 37 -63 2 -115 -2 -140 -10z"/>
<path d="M4190 4385 l0 -65 75 0 75 0 0 -305 0 -305 70 0 70 0 0 305 0 305 75
0 75 0 0 65 0 65 -220 0 -220 0 0 -65z"/>
<path d="M4730 4081 l0 -371 70 0 70 0 0 138 0 138 103 10 c84 8 113 15 151
38 68 40 100 93 104 176 5 75 -14 124 -65 172 -54 52 -94 62 -270 66 l-163 4
0 -371z m334 210 c19 -18 26 -35 26 -61 0 -73 -57 -110 -167 -110 l-53 0 0
101 0 101 84 -3 c73 -4 88 -7 110 -28z"/>
<path d="M5670 4080 l0 -370 70 0 70 0 0 160 0 161 148 -3 147 -3 3 -157 3
-158 69 0 70 0 0 370 0 370 -70 0 -70 0 0 -150 0 -150 -150 0 -150 0 0 150 0
150 -70 0 -70 0 0 -370z"/>
<path d="M7280 4080 l0 -371 73 3 72 3 5 275 5 275 104 -278 105 -278 60 3 60
3 105 279 106 279 3 -281 2 -282 70 0 70 0 0 370 0 370 -97 0 -98 0 -110 -284
c-60 -157 -112 -283 -115 -280 -2 3 -52 130 -111 282 l-106 277 -101 3 -102 3
0 -371z"/>
<path d="M5350 3775 l0 -65 70 0 70 0 0 65 0 65 -70 0 -70 0 0 -65z"/>
</g>
</svg>
